<?xml version="1.0" standalone="no"?><!DOCTYPE svg PUBLIC "-//W3C//DTD SVG 1.1//EN" "http://www.w3.org/Graphics/SVG/1.1/DTD/svg11.dtd"><svg t="1634387310688" class="icon" viewBox="0 0 1024 1024" version="1.1" xmlns="http://www.w3.org/2000/svg" p-id="3244" width="128" height="128" xmlns:xlink="http://www.w3.org/1999/xlink"><defs><style type="text/css"></style></defs><path d="M584.32 89.48l-5.78-0.14c-47.63-1.19-74.8 22.66-89.21 42.89-9.1 12.76-14.28 25.6-17.03 34.14-32.66-8.99-59.75-6.41-80.63 7.71-25.28 17.1-34.09 46.39-37.08 62.28-28.44-5.61-50.85-1.13-66.71 13.38-24.52 22.43-25.46 62.55-23.98 83.69-33.13-6.53-57.49-1.57-72.51 14.76-24.2 26.32-15.22 74.12-9.13 96.62-29.5 2.11-51.29 12.74-64.91 31.68-29.72 41.36-7.78 106.35-6.83 109.1l1.22 3.53 507.22 266.7 26.3 26.3 0.15-0.15c71.47 65.45 175.19 70.98 235.11 11.06 59.92-59.92 54.39-163.64-11.06-235.11l0.15-0.15-26.17-26.17L584.32 89.48z m210.95 574.65l-145.6-225.45c20.21-14.73 41.03-27.94 62.13-38.7l112.41 235.2-28.94 28.95zM622.84 836.55L396.17 717.37c7.3-10.97 21.44-31.73 40.86-57.78l210.94 151.83-25.13 25.13z m129.12-129.12L576.74 499.99c18.32-17.37 37.71-34.32 57.82-49.94l147.06 227.72-29.66 29.66z m-90.47 90.47L448.4 644.53c12.58-16.44 26.88-34.43 42.59-53.07 2.43-2.89 4.94-5.83 7.49-8.79l195.74 182.5-32.73 32.73z m46.08-46.07L510.88 568.45c15.83-17.9 33.39-36.7 52.27-55.32l175.42 207.69-31 31.01z m-231-172.53c-49.15 58.29-84.81 110.56-97.18 129.24l-42.34-22.26c10.54-18.58 39.37-66.63 85.8-123.82 53.56-65.98 141.76-157.39 260.28-222.49l20.54 42.98c-71.37 36.22-147.72 102.21-227.1 196.35z m161.37 268.83L835.6 650.46l7.31 7.31-197.67 197.66-7.3-7.3zM132.68 487.45c11.72-16.28 32.62-24.41 62.12-24.17l13.52 0.1-4.57-12.73c-6.33-17.62-18.4-68.07 1.52-89.72 11.83-12.86 34.39-14.95 67.02-6.18l14.25 3.82-2.51-14.54c-0.1-0.56-9.46-56.64 16.6-80.41 12.68-11.58 32.67-13.81 59.43-6.63l11.15 2.99 0.7-11.53c0.02-0.4 2.74-40.1 30.32-58.75 17.77-12.02 42.54-12.87 73.65-2.54l10.25 3.41 1.99-10.62c0.03-0.18 3.58-18.56 16.57-36.78 16.05-22.53 38.8-34.28 67.66-34.98l102.64 214.76c-121.65 66.6-212.01 160.17-266.78 227.64-48.1 59.26-77.25 108.05-87.88 126.91L127.27 575.98c-3.78-13.03-15.23-59.86 5.41-88.53z m734.48 392.24c-52.6 52.6-144.37 47.08-208.42-11.08l197.33-197.33c58.16 64.04 63.68 155.81 11.09 208.41z" p-id="3245"></path></svg>